<mxfile host="app.diagrams.net" modified="2023-11-30T22:15:43.446Z" agent="Mozilla/5.0 (Windows NT 10.0; Win64; x64; rv:120.0) Gecko/20100101 Firefox/120.0" etag="EGvLejjYmDhXtKu6v_Lt" version="22.1.5" type="google">
  <diagram name="Page-1" id="V0MjS3Xm_Lw15qfUaB40">
    <mxGraphModel grid="1" page="1" gridSize="10" guides="1" tooltips="1" connect="1" arrows="1" fold="1" pageScale="1" pageWidth="850" pageHeight="1100" math="0" shadow="0">
      <root>
        <mxCell id="0" />
        <mxCell id="1" parent="0" />
        <mxCell id="xqxouHtc__-xPD58LI36-3" value="" style="edgeStyle=orthogonalEdgeStyle;rounded=0;orthogonalLoop=1;jettySize=auto;html=1;" edge="1" parent="1" source="xqxouHtc__-xPD58LI36-1" target="xqxouHtc__-xPD58LI36-2">
          <mxGeometry relative="1" as="geometry" />
        </mxCell>
        <mxCell id="xqxouHtc__-xPD58LI36-1" value="&lt;div&gt;Start&lt;/div&gt;" style="rounded=1;whiteSpace=wrap;html=1;" vertex="1" parent="1">
          <mxGeometry x="420" y="190" width="120" height="60" as="geometry" />
        </mxCell>
        <mxCell id="xqxouHtc__-xPD58LI36-5" value="" style="edgeStyle=orthogonalEdgeStyle;rounded=0;orthogonalLoop=1;jettySize=auto;html=1;" edge="1" parent="1" source="xqxouHtc__-xPD58LI36-2" target="xqxouHtc__-xPD58LI36-4">
          <mxGeometry relative="1" as="geometry" />
        </mxCell>
        <mxCell id="xqxouHtc__-xPD58LI36-2" value="Count first preferences for each candidate" style="rounded=0;whiteSpace=wrap;html=1;" vertex="1" parent="1">
          <mxGeometry x="420" y="290" width="120" height="60" as="geometry" />
        </mxCell>
        <mxCell id="xqxouHtc__-xPD58LI36-7" value="" style="edgeStyle=orthogonalEdgeStyle;rounded=0;orthogonalLoop=1;jettySize=auto;html=1;" edge="1" parent="1" source="xqxouHtc__-xPD58LI36-4" target="xqxouHtc__-xPD58LI36-6">
          <mxGeometry relative="1" as="geometry" />
        </mxCell>
        <mxCell id="xqxouHtc__-xPD58LI36-8" value="No" style="edgeLabel;html=1;align=center;verticalAlign=middle;resizable=0;points=[];" connectable="0" vertex="1" parent="xqxouHtc__-xPD58LI36-7">
          <mxGeometry x="-0.1464" relative="1" as="geometry">
            <mxPoint x="16" y="-10" as="offset" />
          </mxGeometry>
        </mxCell>
        <mxCell id="xqxouHtc__-xPD58LI36-4" value="&lt;font style=&quot;font-size: 12px;&quot;&gt;Does any&lt;br&gt;&lt;/font&gt;&lt;div&gt;&lt;font style=&quot;font-size: 12px;&quot;&gt;candidate have votes&lt;/font&gt;&lt;/div&gt;&lt;div&gt;&lt;font style=&quot;font-size: 12px;&quot;&gt;equal or &lt;/font&gt;&lt;font style=&quot;font-size: 12px;&quot;&gt;greater than&lt;/font&gt;&lt;/div&gt;&lt;div&gt;&lt;font style=&quot;font-size: 12px;&quot;&gt;the quota&lt;/font&gt;&lt;/div&gt;" style="rhombus;whiteSpace=wrap;html=1;rounded=0;" vertex="1" parent="1">
          <mxGeometry x="400" y="420" width="160" height="100" as="geometry" />
        </mxCell>
        <mxCell id="xqxouHtc__-xPD58LI36-10" value="" style="edgeStyle=orthogonalEdgeStyle;rounded=0;orthogonalLoop=1;jettySize=auto;html=1;entryX=1;entryY=0.5;entryDx=0;entryDy=0;" edge="1" parent="1" source="xqxouHtc__-xPD58LI36-6" target="xqxouHtc__-xPD58LI36-4">
          <mxGeometry relative="1" as="geometry">
            <mxPoint x="650" y="690" as="targetPoint" />
            <Array as="points">
              <mxPoint x="700" y="595" />
              <mxPoint x="700" y="470" />
            </Array>
          </mxGeometry>
        </mxCell>
        <mxCell id="xqxouHtc__-xPD58LI36-6" value="Exclude last placed candidate and distribute votes to remaining preferences" style="whiteSpace=wrap;html=1;rounded=0;" vertex="1" parent="1">
          <mxGeometry x="520" y="560" width="140" height="70" as="geometry" />
        </mxCell>
        <mxCell id="xqxouHtc__-xPD58LI36-11" value="Have enough&lt;br&gt;&lt;div&gt;candidates been&lt;/div&gt;&lt;div&gt;elected?&lt;/div&gt;" style="rhombus;whiteSpace=wrap;html=1;rounded=0;" vertex="1" parent="1">
          <mxGeometry x="280" y="560" width="160" height="100" as="geometry" />
        </mxCell>
        <mxCell id="xqxouHtc__-xPD58LI36-12" value="" style="edgeStyle=orthogonalEdgeStyle;rounded=0;orthogonalLoop=1;jettySize=auto;html=1;entryX=0.5;entryY=0;entryDx=0;entryDy=0;" edge="1" parent="1" target="xqxouHtc__-xPD58LI36-11">
          <mxGeometry relative="1" as="geometry">
            <mxPoint x="480" y="540" as="sourcePoint" />
            <mxPoint x="360" y="550" as="targetPoint" />
            <Array as="points">
              <mxPoint x="360" y="540" />
            </Array>
          </mxGeometry>
        </mxCell>
        <mxCell id="xqxouHtc__-xPD58LI36-13" value="Yes" style="edgeLabel;html=1;align=center;verticalAlign=middle;resizable=0;points=[];" connectable="0" vertex="1" parent="xqxouHtc__-xPD58LI36-12">
          <mxGeometry x="-0.1464" relative="1" as="geometry">
            <mxPoint x="16" y="-10" as="offset" />
          </mxGeometry>
        </mxCell>
        <mxCell id="xqxouHtc__-xPD58LI36-14" value="" style="edgeStyle=orthogonalEdgeStyle;rounded=0;orthogonalLoop=1;jettySize=auto;html=1;exitX=0.5;exitY=1;exitDx=0;exitDy=0;entryX=0.5;entryY=0;entryDx=0;entryDy=0;" edge="1" parent="1" source="xqxouHtc__-xPD58LI36-11" target="xqxouHtc__-xPD58LI36-18">
          <mxGeometry relative="1" as="geometry">
            <mxPoint x="364.72" y="680" as="sourcePoint" />
            <mxPoint x="475" y="700" as="targetPoint" />
            <Array as="points">
              <mxPoint x="360" y="680" />
              <mxPoint x="470" y="680" />
            </Array>
          </mxGeometry>
        </mxCell>
        <mxCell id="xqxouHtc__-xPD58LI36-15" value="Yes" style="edgeLabel;html=1;align=center;verticalAlign=middle;resizable=0;points=[];" connectable="0" vertex="1" parent="xqxouHtc__-xPD58LI36-14">
          <mxGeometry x="-0.1464" relative="1" as="geometry">
            <mxPoint x="16" y="-10" as="offset" />
          </mxGeometry>
        </mxCell>
        <mxCell id="xqxouHtc__-xPD58LI36-16" value="" style="edgeStyle=orthogonalEdgeStyle;rounded=0;orthogonalLoop=1;jettySize=auto;html=1;entryX=0.5;entryY=0;entryDx=0;entryDy=0;" edge="1" parent="1" target="xqxouHtc__-xPD58LI36-19">
          <mxGeometry relative="1" as="geometry">
            <mxPoint x="364.72" y="680" as="sourcePoint" />
            <mxPoint x="244.72000000000006" y="709" as="targetPoint" />
            <Array as="points">
              <mxPoint x="250" y="680" />
            </Array>
          </mxGeometry>
        </mxCell>
        <mxCell id="xqxouHtc__-xPD58LI36-17" value="No" style="edgeLabel;html=1;align=center;verticalAlign=middle;resizable=0;points=[];" connectable="0" vertex="1" parent="xqxouHtc__-xPD58LI36-16">
          <mxGeometry x="-0.1464" relative="1" as="geometry">
            <mxPoint x="16" y="-10" as="offset" />
          </mxGeometry>
        </mxCell>
        <mxCell id="xqxouHtc__-xPD58LI36-18" value="End" style="rounded=1;whiteSpace=wrap;html=1;" vertex="1" parent="1">
          <mxGeometry x="410" y="700" width="120" height="60" as="geometry" />
        </mxCell>
        <mxCell id="xqxouHtc__-xPD58LI36-19" value="Exclude last placed candidate and distribute votes to remaining preferences" style="whiteSpace=wrap;html=1;rounded=0;" vertex="1" parent="1">
          <mxGeometry x="180" y="695" width="140" height="70" as="geometry" />
        </mxCell>
        <mxCell id="xqxouHtc__-xPD58LI36-20" value="" style="edgeStyle=orthogonalEdgeStyle;rounded=0;orthogonalLoop=1;jettySize=auto;html=1;entryX=0;entryY=0.5;entryDx=0;entryDy=0;exitX=0.5;exitY=1;exitDx=0;exitDy=0;" edge="1" parent="1" source="xqxouHtc__-xPD58LI36-19" target="xqxouHtc__-xPD58LI36-4">
          <mxGeometry relative="1" as="geometry">
            <mxPoint x="244.72" y="790" as="sourcePoint" />
            <mxPoint x="130" y="805" as="targetPoint" />
            <Array as="points">
              <mxPoint x="250" y="790" />
              <mxPoint x="150" y="790" />
              <mxPoint x="150" y="470" />
            </Array>
          </mxGeometry>
        </mxCell>
      </root>
    </mxGraphModel>
  </diagram>
</mxfile>
